#!OML:ASF F:\VICON\USERDATA\INSTALL\Justin_Nancy\Justin_Nancy.ASF
:FULLY-SPECIFIED
:DEGREES
331
root 1.19158 17.3785 11.7415 -98.4649 -84.6484 101.063
lowerback 8.21531 -0.273365 -5.89321
upperback 0.123454 -0.909622 0.617073
thorax -4.38625 -0.32574 4.07059
lowerneck -17.0346 -3.47751 -8.26873
upperneck 23.8795 -3.98822 4.34012
head 10.7667 -2.16245 2.36033
rclavicle 3.52843e-015 4.77083e-015
rhumerus -33.46 -11.6785 -81.7552
rradius 35.4511
rwrist -0.415352
rhand -15.4862 12.073
rfingers 7.12502
rthumb 10.6958 -17.6348
lclavicle 3.52843e-015 4.77083e-015
lhumerus -28.7261 19.4371 80.5672
lradius 21.2861
lwrist -17.746
lhand -14.1502 24.795
lfingers 7.12502
lthumb 11.9843 54.4319
rfemur -30.6522 -4.62561 17.2378
rtibia 62.1536
rfoot -11.8202 2.42742
rtoes 13.228
lfemur -8.97568 -1.53399 -26.64
ltibia 25.3085
lfoot -15.4315 -10.8398
ltoes 21.7879
332
root 1.06284 17.3772 11.7455 -102.933 -84.7695 105.229
lowerback 8.51418 -0.168152 -5.98721
upperback 0.24811 -0.797272 0.619117
thorax -4.43532 -0.270576 4.11676
lowerneck -16.8541 -3.47887 -8.11253
upperneck 23.6537 -4.09981 4.5614
head 10.6566 -2.1713 2.39804
rclavicle -1.21756e-014 -7.95139e-016
rhumerus -33.4301 -11.9066 -81.8459
rradius 35.7208
rwrist -0.317904
rhand -15.4705 12.0686
rfingers 7.12502
rthumb 10.7109 -17.6384
lclavicle -1.21756e-014 -7.95139e-016
lhumerus -28.582 20.0597 80.471
lradius 21.4047
lwrist -19.2355
lhand -14.1505 24.6305
lfingers 7.12502
lthumb 11.984 54.2675
rfemur -30.783 -4.50549 17.7217
rtibia 60.5269
rfoot -12.1055 2.54286
rtoes 15.3929
lfemur -8.02767 -1.54159 -26.3578
ltibia 25.1839
lfoot -15.2057 -11.4545
ltoes 27.4359
333
root 0.957129 17.3645 11.8142 -97.6015 -84.7644 100.224
lowerback 8.49761 -0.444817 -5.25601
upperback 0.153881 -1.10896 0.316169
thorax -4.50704 -0.438949 3.42377
lowerneck -16.7746 -3.49235 -7.85297
upperneck 23.4259 -4.18446 4.55848
head 10.5569 -2.1835 2.34026
rclavicle -1.49089e-015 -2.3059e-014
rhumerus -33.3285 -11.7738 -82.1353
rradius 35.9477
rwrist -0.699282
rhand -16.1148 12.1356
rfingers 7.12502
rthumb 10.0894 -17.6025
lclavicle -1.49089e-015 -2.3059e-014
lhumerus -28.2118 19.5875 80.7415
lradius 21.6078
lwrist -19.4803
lhand -14.422 24.9644
lfingers 7.12502
lthumb 11.7222 54.6164
rfemur -31.7029 -4.71969 17.6872
rtibia 58.8091
rfoot -12.2327 2.0937
rtoes 21.2961
lfemur -7.99759 -0.471248 -26.9372
ltibia 25.0333
lfoot -16.1177 -11.3624
ltoes 20.2247
334
root 0.828979 17.3646 11.7854 -104.487 -84.438 106.957
lowerback 8.52882 -0.112868 -6.23823
upperback 0.323653 -0.762474 0.348261
thorax -4.36933 -0.256195 3.96954
lowerneck -16.7898 -3.60708 -7.57254
upperneck 23.3317 -4.35791 4.33296
head 10.5255 -2.26169 2.18616
rclavicle 3.97569e-016 -2.38542e-015
rhumerus -33.1924 -12.0094 -82.2541
rradius 36.0428
rwrist -0.613783
rhand -16.8494 12.4648
rfingers 7.12502
rthumb 9.38069 -17.3064
lclavicle 3.97569e-016 -2.38542e-015
lhumerus -27.6042 18.051 81.377
lradius 21.8993
lwrist -18.4479
lhand -16.3548 25.5853
lfingers 7.12502
lthumb 9.85786 55.3345
rfemur -31.6641 -1.34321 17.8908
rtibia 56.7672
rfoot -13.27 -1.05536
rtoes 20.326
lfemur -7.27508 1.83529 -26.9825
ltibia 24.9449
lfoot -16.704 -12.5812
ltoes 16.4316
335
root 0.70063 17.3577 11.8543 -104.016 -84.6453 106.891
lowerback 8.1219 -0.196146 -5.48867
upperback 0.273839 -0.777446 0.266346
thorax -4.20061 -0.28251 3.45662
lowerneck -16.6663 -3.71822 -7.40673
upperneck 23.1573 -4.55424 4.30268
head 10.4464 -2.33931 2.11962
rclavicle -6.41081e-015 1.11319e-014
rhumerus -33.0358 -12.4226 -82.1891
rradius 36.042
rwrist -0.681197
rhand -17.0035 12.5362
rfingers 7.12502
rthumb 9.23201 -17.2417
lclavicle -6.41081e-015 1.11319e-014
lhumerus -27.1231 15.9723 82.1439
lradius 22.3013
lwrist -16.4124
lhand -19.4855 26.5175
lfingers 7.12502
lthumb 6.83654 56.3871
rfemur -32.4713 -1.91344 18.1494
rtibia 54.5361
rfoot -13.1584 -1.45067
rtoes 18.476
lfemur -7.38856 1.4581 -27.1204
ltibia 25.0706
lfoot -16.9627 -12.1395
ltoes 14.8171
336
root 0.582576 17.3715 11.8922 -102.417 -85.2688 105.602
lowerback 8.04349 -0.332404 -4.75057
upperback 0.184481 -0.878596 0.41119
thorax -4.24718 -0.341554 3.2027
lowerneck -16.6208 -3.81327 -7.43965
upperneck 23.0819 -4.71795 4.45022
head 10.4258 -2.39939 2.15455
rclavicle 8.29926e-015 3.97569e-015
rhumerus -33.0092 -13.0195 -81.9912
rradius 36.1602
rwrist -0.66111
rhand -16.2955 12.5116
rfingers 7.12502
rthumb 9.91509 -17.2349
lclavicle 8.29926e-015 3.97569e-015
lhumerus -26.7658 14.9463 82.8199
lradius 22.6567
lwrist -14.9947
lhand -20.9358 27.9228
lfingers 7.12502
lthumb 5.43637 57.8331
rfemur -32.9125 -2.4856 19.0064
rtibia 52.0034
rfoot -12.9407 -2.02423
rtoes 16.77
lfemur -7.29725 0.840881 -26.5255
ltibia 25.1005
lfoot -16.4861 -12.5481
ltoes 20.4119
337
root 0.466636 17.3806 11.9094 -101.756 -85.889 105.125
lowerback 8.12727 -0.388166 -4.12453
upperback 0.0911647 -0.895005 0.494103
thorax -4.39737 -0.355708 2.94041
lowerneck -16.564 -3.90414 -7.21718
upperneck 23.1657 -4.91408 4.41843
head 10.4513 -2.4766 2.07865
rclavicle 1.32689e-014 -1.82882e-014
rhumerus -33.0107 -13.6734 -81.9548
rradius 36.1097
rwrist -0.394944
rhand -15.7168 12.3613
rfingers 7.12502
rthumb 10.4734 -17.3578
lclavicle 1.32689e-014 -1.82882e-014
lhumerus -26.5771 14.6732 83.0441
lradius 23.028
lwrist -14.8345
lhand -20.8358 28.5467
lfingers 7.12502
lthumb 5.53291 58.4545
rfemur -33.0935 -2.84556 20.0049
rtibia 49.352
rfoot -12.7515 -2.78923
rtoes 16.138
lfemur -7.05285 0.15161 -25.8286
ltibia 25.1371
lfoot -15.9767 -12.8516
ltoes 27.7997
338
root 0.338573 17.3652 11.9163 -102.66 -85.6532 106.221
lowerback 7.87907 -0.321328 -4.45936
upperback 0.139203 -0.829157 0.395319
thorax -4.2103 -0.322691 3.01418
lowerneck -16.6723 -3.94521 -7.09294
upperneck 23.2113 -5.0162 4.47794
head 10.4932 -2.50376 2.06331
rclavicle -6.21202e-015 1.43125e-014
rhumerus -32.8542 -13.9404 -81.9709
rradius 36.0552
rwrist -0.316371
rhand -15.9127 12.1842
rfingers 7.12502
rthumb 10.2843 -17.5443
lclavicle -6.21202e-015 1.43125e-014
lhumerus -26.2293 14.2974 83.2926
lradius 23.4136
lwrist -14.7236
lhand -20.8002 29.4169
lfingers 7.12502
lthumb 5.5673 59.3238
rfemur -33.322 -3.0329 20.1502
rtibia 46.6827
rfoot -12.3787 -3.52462
rtoes 14.968
lfemur -6.70354 1.15722 -26.1755
ltibia 24.9221
lfoot -16.378 -13.1125
ltoes 22.4298
339
root 0.205862 17.3589 11.9194 -105.4 -85.0772 108.925
lowerback 7.69064 -0.174247 -5.12499
upperback 0.344965 -0.687567 0.245727
thorax -3.89695 -0.254734 3.21348
lowerneck -16.7008 -4.0317 -7.05618
upperneck 22.9807 -5.12444 4.46946
head 10.4208 -2.54574 2.03735
rclavicle 2.13694e-015 3.97569e-016
rhumerus -32.5216 -14.0588 -82.0667
rradius 35.9027
rwrist -0.296109
rhand -16.6028 12.0491
rfingers 7.12502
rthumb 9.61859 -17.7113
lclavicle 2.13694e-015 3.97569e-016
lhumerus -25.6981 13.8952 83.6062
lradius 23.7806
lwrist -14.2184
lhand -19.8224 28.9069
lfingers 7.12502
lthumb 6.51127 58.7868
rfemur -33.3112 -2.90912 19.8763
rtibia 44.108
rfoot -12.1229 -4.13876
rtoes 14.5254
lfemur -5.76061 1.09186 -26.8368
ltibia 24.2966
lfoot -16.651 -12.6137
ltoes 20.2334
340
root 0.0616513 17.3787 11.9505 -108.717 -84.406 111.957
lowerback 7.77168 0.0551276 -5.4172
upperback 0.512659 -0.424369 -0.0279536
thorax -3.79255 -0.129848 3.06443
lowerneck -16.609 -4.19296 -7.08436
upperneck 22.8752 -5.35066 4.49274
head 10.3817 -2.64905 2.01848
rclavicle -7.45443e-016 2.14687e-014
rhumerus -32.4355 -14.5688 -82.0481
rradius 35.7174
rwrist -0.119945
rhand -16.661 12.2796
rfingers 7.12502
rthumb 9.56244 -17.4834
lclavicle -7.45443e-016 2.14687e-014
lhumerus -25.3361 13.6148 83.7915
lradius 24.0714
lwrist -13.8252
lhand -17.3444 26.2754
lfingers 7.12502
lthumb 8.90305 56.0675
rfemur -32.9204 -2.34013 19.2372
rtibia 41.5475
rfoot -12.0509 -4.72849
rtoes 15.2713
lfemur -4.12314 -2.53428 -27.7565
ltibia 23.4087
lfoot -15.9811 -10.4374
ltoes 29.8103
341
root -0.0782537 17.3469 11.9809 -109.432 -83.9596 112.745
lowerback 7.61782 0.222917 -5.43372
upperback 0.521917 -0.207311 -0.334879
thorax -3.71802 -0.0276806 2.72981
lowerneck -16.5431 -4.30607 -6.97485
upperneck 22.9775 -5.57813 4.57511
head 10.4202 -2.73744 1.99782
rclavicle 3.97569e-015 1.47101e-014
rhumerus -32.4524 -14.9096 -82.1179
rradius 35.5483
rwrist -0.558849
rhand -16.6387 12.3006
rfingers 7.12502
rthumb 9.58395 -17.4614
lclavicle 3.97569e-015 1.47101e-014
lhumerus -25.092 12.7792 84.0083
lradius 24.4274
lwrist -13.5612
lhand -16.1169 24.7246
lfingers 7.12502
lthumb 10.0874 54.4629
rfemur -33.0264 -1.84535 18.8067
rtibia 39.0461
rfoot -11.8633 -5.35402
rtoes 15.5746
lfemur -3.40621 -0.389115 -28.6289
ltibia 22.4974
lfoot -16.6348 -9.56532
ltoes 20.2826
342
root -0.180145 17.34 11.9737 -104.541 -83.9205 108.283
lowerback 7.69546 0.0968162 -5.81564
upperback 0.277309 -0.423521 -0.408389
thorax -3.99636 -0.115563 2.89219
lowerneck -16.649 -4.28796 -6.93361
upperneck 23.3039 -5.63954 4.78413
head 10.5682 -2.74079 2.05604
rclavicle -5.36719e-015 -7.55382e-015
rhumerus -32.4735 -14.5795 -82.3786
rradius 35.3607
rwrist -1.35429
rhand -17.2584 12.1721
rfingers 7.12502
rthumb 8.98598 -17.6165
lclavicle -5.36719e-015 -7.55382e-015
lhumerus -24.9985 11.5789 84.1081
lradius 24.9447
lwrist -12.9208
lhand -16.1488 24.9359
lfingers 7.12502
lthumb 10.0566 54.6756
rfemur -33.3908 -2.14326 18.8629
rtibia 36.374
rfoot -11.4031 -5.91195
rtoes 15.7271
lfemur -3.22619 1.88675 -28.6022
ltibia 21.7327
lfoot -16.5204 -11.2656
ltoes 17.4361
343
root -0.272779 17.3428 11.9589 -98.9113 -83.9268 103.015
lowerback 7.98367 -0.135522 -6.47912
upperback 0.0152095 -0.813249 -0.234019
thorax -4.38634 -0.274414 3.49515
lowerneck -16.7965 -4.23235 -7.09694
upperneck 23.5661 -5.54838 4.87295
head 10.6945 -2.70419 2.12742
rclavicle -8.94531e-016 -3.97569e-015
rhumerus -32.4169 -14.0986 -82.4796
rradius 35.0183
rwrist -1.60227
rhand -18.1094 12.1842
rfingers 7.12502
rthumb 8.16477 -17.6381
lclavicle -8.94531e-016 -3.97569e-015
lhumerus -24.9241 10.4585 84.1963
lradius 25.4593
lwrist -11.8158
lhand -15.7428 24.9678
lfingers 7.12502
lthumb 10.4483 54.6881
rfemur -33.5964 -2.35467 18.9519
rtibia 33.6712
rfoot -11.0777 -6.65264
rtoes 16.8558
lfemur -2.99076 2.96992 -28.4565
ltibia 21.1278
lfoot -16.1965 -12.7067
ltoes 17.4945
344
root -0.40846 17.3454 11.9918 -97.5477 -84.0396 101.95
lowerback 7.75843 -0.282835 -6.25393
upperback -0.097545 -0.96844 -0.142375
thorax -4.36226 -0.351888 3.47908
lowerneck -16.8357 -4.22135 -7.30898
upperneck 23.7033 -5.46939 4.83291
head 10.753 -2.69323 2.16003
rclavicle -8.29926e-015 2.78299e-015
rhumerus -32.3574 -13.7292 -82.4494
rradius 34.6444
rwrist -1.47794
rhand -17.9288 12.4836
rfingers 7.12502
rthumb 8.33906 -17.3318
lclavicle -8.29926e-015 2.78299e-015
lhumerus -24.8512 9.47157 84.6382
lradius 26.0107
lwrist -9.81833
lhand -16.5414 25.3786
lfingers 7.12502
lthumb 9.67783 55.1363
rfemur -33.593 -2.40724 19.0428
rtibia 30.8377
rfoot -10.6222 -6.93622
rtoes 17.2413
lfemur -2.53753 2.57896 -28.5574
ltibia 20.5977
lfoot -15.7613 -12.3716
ltoes 19.9188
345
root -0.550472 17.3545 12.0066 -97.0478 -84.3782 101.661
lowerback 7.45318 -0.273491 -5.81974
upperback -0.0990536 -0.889839 -0.0654771
thorax -4.20421 -0.325391 3.30168
lowerneck -16.8321 -4.31887 -7.38425
upperneck 23.7953 -5.58256 4.79102
head 10.7957 -2.75773 2.14089
rclavicle -1.73937e-015 -1.82882e-014
rhumerus -32.3922 -13.8744 -82.3372
rradius 34.5205
rwrist -1.53126
rhand -17.0324 12.7037
rfingers 7.12502
rthumb 9.20412 -17.0754
lclavicle -1.73937e-015 -1.82882e-014
lhumerus -24.5957 9.55823 84.9405
lradius 26.3461
lwrist -10.0637
lhand -15.7175 24.8566
lfingers 7.12502
lthumb 10.4726 54.5758
rfemur -33.4047 -2.29573 19.3839
rtibia 28.0085
rfoot -10.2648 -7.10517
rtoes 16.4011
lfemur -1.93615 2.49609 -28.2963
ltibia 20.0054
lfoot -15.6727 -12.0969
ltoes 20.0139
